<mxfile host="65bd71144e">
    <diagram id="VetKzjbRoYOWJcP3zysH" name="Page-1">
        <mxGraphModel dx="1557" dy="1449" grid="1" gridSize="10" guides="1" tooltips="1" connect="1" arrows="1" fold="1" page="1" pageScale="1" pageWidth="850" pageHeight="1100" math="0" shadow="0">
            <root>
                <mxCell id="0"/>
                <mxCell id="1" parent="0"/>
                <mxCell id="2" value="" style="endArrow=none;html=1;" parent="1" edge="1">
                    <mxGeometry width="50" height="50" relative="1" as="geometry">
                        <mxPoint x="100" y="-170" as="sourcePoint"/>
                        <mxPoint x="700" y="-170" as="targetPoint"/>
                    </mxGeometry>
                </mxCell>
                <mxCell id="3" value="" style="endArrow=none;html=1;" parent="1" edge="1">
                    <mxGeometry width="50" height="50" relative="1" as="geometry">
                        <mxPoint x="100" y="260" as="sourcePoint"/>
                        <mxPoint x="100" y="-170" as="targetPoint"/>
                    </mxGeometry>
                </mxCell>
                <mxCell id="4" value="" style="endArrow=none;html=1;" parent="1" edge="1">
                    <mxGeometry width="50" height="50" relative="1" as="geometry">
                        <mxPoint x="700" y="260" as="sourcePoint"/>
                        <mxPoint x="700" y="-170" as="targetPoint"/>
                    </mxGeometry>
                </mxCell>
                <mxCell id="5" value="" style="endArrow=none;html=1;" parent="1" edge="1">
                    <mxGeometry width="50" height="50" relative="1" as="geometry">
                        <mxPoint x="100" y="260" as="sourcePoint"/>
                        <mxPoint x="700" y="260" as="targetPoint"/>
                    </mxGeometry>
                </mxCell>
                <mxCell id="7" value="" style="endArrow=none;html=1;" parent="1" edge="1">
                    <mxGeometry width="50" height="50" relative="1" as="geometry">
                        <mxPoint x="100" y="229.30999999999995" as="sourcePoint"/>
                        <mxPoint x="700" y="229.30999999999995" as="targetPoint"/>
                    </mxGeometry>
                </mxCell>
                <mxCell id="8" value="A - 0" style="text;html=1;align=center;verticalAlign=middle;whiteSpace=wrap;rounded=0;" parent="1" vertex="1">
                    <mxGeometry x="110" y="230" width="60" height="30" as="geometry"/>
                </mxCell>
                <mxCell id="9" value="" style="endArrow=none;html=1;" parent="1" edge="1">
                    <mxGeometry width="50" height="50" relative="1" as="geometry">
                        <mxPoint x="180" y="260" as="sourcePoint"/>
                        <mxPoint x="180" y="230" as="targetPoint"/>
                    </mxGeometry>
                </mxCell>
                <mxCell id="10" value="Обработать клиента и заключить туристический договор&amp;nbsp;" style="rounded=0;whiteSpace=wrap;html=1;" parent="1" vertex="1">
                    <mxGeometry x="280" y="-100" width="250" height="120" as="geometry"/>
                </mxCell>
                <mxCell id="11" value="Организация бизнес процесса работы с клиентами турфирмы" style="text;html=1;align=center;verticalAlign=middle;whiteSpace=wrap;rounded=0;" parent="1" vertex="1">
                    <mxGeometry x="230" y="230" width="360" height="30" as="geometry"/>
                </mxCell>
                <mxCell id="12" value="" style="endArrow=classic;html=1;entryX=0;entryY=0.417;entryDx=0;entryDy=0;entryPerimeter=0;" parent="1" edge="1">
                    <mxGeometry width="50" height="50" relative="1" as="geometry">
                        <mxPoint x="215" y="-25" as="sourcePoint"/>
                        <mxPoint x="275" y="-24.960000000000036" as="targetPoint"/>
                        <Array as="points">
                            <mxPoint x="215" y="-25"/>
                        </Array>
                    </mxGeometry>
                </mxCell>
                <mxCell id="13" value="" style="endArrow=classic;html=1;exitX=1.004;exitY=0.387;exitDx=0;exitDy=0;exitPerimeter=0;" parent="1" edge="1">
                    <mxGeometry width="50" height="50" relative="1" as="geometry">
                        <mxPoint x="530" y="-39.900000000000034" as="sourcePoint"/>
                        <mxPoint x="590" y="-40" as="targetPoint"/>
                    </mxGeometry>
                </mxCell>
                <mxCell id="15" value="А0" style="text;html=1;align=center;verticalAlign=middle;whiteSpace=wrap;rounded=0;" parent="1" vertex="1">
                    <mxGeometry x="470" y="-10" width="60" height="30" as="geometry"/>
                </mxCell>
                <mxCell id="16" value="Заявка клиента" style="text;html=1;align=center;verticalAlign=middle;whiteSpace=wrap;rounded=0;" parent="1" vertex="1">
                    <mxGeometry x="110" y="-40" width="100" height="30" as="geometry"/>
                </mxCell>
                <mxCell id="18" value="Обработанная анкета обратной связи" style="text;html=1;align=center;verticalAlign=middle;whiteSpace=wrap;rounded=0;" parent="1" vertex="1">
                    <mxGeometry x="590" y="-55" width="90" height="30" as="geometry"/>
                </mxCell>
                <mxCell id="21" value="" style="endArrow=classic;html=1;entryX=0.695;entryY=1.01;entryDx=0;entryDy=0;entryPerimeter=0;" parent="1" edge="1">
                    <mxGeometry width="50" height="50" relative="1" as="geometry">
                        <mxPoint x="494.96" y="68.80000000000001" as="sourcePoint"/>
                        <mxPoint x="494.71" y="19.999999999999943" as="targetPoint"/>
                    </mxGeometry>
                </mxCell>
                <mxCell id="22" value="База данных клиентов" style="text;html=1;align=center;verticalAlign=middle;whiteSpace=wrap;rounded=0;" parent="1" vertex="1">
                    <mxGeometry x="435" y="70" width="110" height="30" as="geometry"/>
                </mxCell>
                <mxCell id="23" value="&lt;b&gt;Цель&lt;/b&gt;:&amp;nbsp; Организовать эффективный процесс работы с клиентом турфирмы" style="text;html=1;align=center;verticalAlign=middle;whiteSpace=wrap;rounded=0;" parent="1" vertex="1">
                    <mxGeometry x="110" y="150" width="430" height="30" as="geometry"/>
                </mxCell>
                <mxCell id="24" value="&lt;b&gt;Точка зрения&lt;/b&gt;: Управляющий состав турфирмы" style="text;html=1;align=center;verticalAlign=middle;whiteSpace=wrap;rounded=0;" parent="1" vertex="1">
                    <mxGeometry x="110" y="180" width="270" height="30" as="geometry"/>
                </mxCell>
                <mxCell id="25" value="" style="endArrow=none;html=1;" parent="1" edge="1">
                    <mxGeometry width="50" height="50" relative="1" as="geometry">
                        <mxPoint x="619.58" y="260" as="sourcePoint"/>
                        <mxPoint x="619.58" y="230" as="targetPoint"/>
                    </mxGeometry>
                </mxCell>
                <mxCell id="30" value="" style="endArrow=classic;html=1;" parent="1" edge="1">
                    <mxGeometry width="50" height="50" relative="1" as="geometry">
                        <mxPoint x="404.5" y="70" as="sourcePoint"/>
                        <mxPoint x="404.5" y="20" as="targetPoint"/>
                    </mxGeometry>
                </mxCell>
                <mxCell id="31" value="Сотрудник турфирмы" style="text;html=1;align=center;verticalAlign=middle;whiteSpace=wrap;rounded=0;" parent="1" vertex="1">
                    <mxGeometry x="375" y="70" width="60" height="30" as="geometry"/>
                </mxCell>
                <mxCell id="34" value="" style="endArrow=classic;html=1;entryX=0.5;entryY=0;entryDx=0;entryDy=0;" parent="1" edge="1">
                    <mxGeometry width="50" height="50" relative="1" as="geometry">
                        <mxPoint x="490" y="-130" as="sourcePoint"/>
                        <mxPoint x="490" y="-100" as="targetPoint"/>
                    </mxGeometry>
                </mxCell>
                <mxCell id="35" value="ГК РФ" style="text;html=1;align=center;verticalAlign=middle;whiteSpace=wrap;rounded=0;" parent="1" vertex="1">
                    <mxGeometry x="415" y="-160" width="150" height="30" as="geometry"/>
                </mxCell>
                <mxCell id="36" value="" style="rounded=0;whiteSpace=wrap;html=1;" parent="1" vertex="1">
                    <mxGeometry x="-230" y="480" width="120" height="60" as="geometry"/>
                </mxCell>
                <mxCell id="37" value="" style="endArrow=classic;html=1;" parent="1" edge="1">
                    <mxGeometry width="50" height="50" relative="1" as="geometry">
                        <mxPoint x="-290" y="509.76" as="sourcePoint"/>
                        <mxPoint x="-230" y="509.76" as="targetPoint"/>
                    </mxGeometry>
                </mxCell>
                <mxCell id="38" value="Заявка клиента" style="text;html=1;align=center;verticalAlign=middle;whiteSpace=wrap;rounded=0;" parent="1" vertex="1">
                    <mxGeometry x="-390" y="495" width="90" height="30" as="geometry"/>
                </mxCell>
                <mxCell id="41" value="Сотрудник турфирмы" style="text;html=1;align=center;verticalAlign=middle;whiteSpace=wrap;rounded=0;" parent="1" vertex="1">
                    <mxGeometry x="-190" y="1320" width="130" height="30" as="geometry"/>
                </mxCell>
                <mxCell id="42" value="Выявить потребности клиента&amp;nbsp;" style="text;html=1;align=center;verticalAlign=middle;whiteSpace=wrap;rounded=0;" parent="1" vertex="1">
                    <mxGeometry x="-210" y="490" width="80" height="30" as="geometry"/>
                </mxCell>
                <mxCell id="43" value="" style="rounded=0;whiteSpace=wrap;html=1;" parent="1" vertex="1">
                    <mxGeometry x="-5" y="600" width="120" height="60" as="geometry"/>
                </mxCell>
                <mxCell id="44" value="" style="endArrow=classic;html=1;entryX=0;entryY=0.5;entryDx=0;entryDy=0;exitX=1;exitY=0.5;exitDx=0;exitDy=0;" parent="1" source="36" target="43" edge="1">
                    <mxGeometry width="50" height="50" relative="1" as="geometry">
                        <mxPoint x="-60" y="680" as="sourcePoint"/>
                        <mxPoint x="-10" y="630" as="targetPoint"/>
                        <Array as="points">
                            <mxPoint x="-60" y="510"/>
                            <mxPoint x="-60" y="630"/>
                        </Array>
                    </mxGeometry>
                </mxCell>
                <mxCell id="45" value="Потребности" style="text;html=1;align=center;verticalAlign=middle;whiteSpace=wrap;rounded=0;" parent="1" vertex="1">
                    <mxGeometry x="-60" y="530" width="90" height="30" as="geometry"/>
                </mxCell>
                <mxCell id="46" value="Составить список возможных туров" style="text;html=1;align=center;verticalAlign=middle;whiteSpace=wrap;rounded=0;" parent="1" vertex="1">
                    <mxGeometry x="25" y="615" width="60" height="30" as="geometry"/>
                </mxCell>
                <mxCell id="48" value="База данных клиентов" style="text;html=1;align=center;verticalAlign=middle;whiteSpace=wrap;rounded=0;" parent="1" vertex="1">
                    <mxGeometry x="-300" y="1320" width="110" height="30" as="geometry"/>
                </mxCell>
                <mxCell id="49" value="" style="endArrow=classic;html=1;" parent="1" edge="1">
                    <mxGeometry width="50" height="50" relative="1" as="geometry">
                        <mxPoint x="-136" y="1310" as="sourcePoint"/>
                        <mxPoint x="-135.70999999999998" y="540" as="targetPoint"/>
                    </mxGeometry>
                </mxCell>
                <mxCell id="52" value="" style="rounded=0;whiteSpace=wrap;html=1;" parent="1" vertex="1">
                    <mxGeometry x="190" y="700" width="120" height="60" as="geometry"/>
                </mxCell>
                <mxCell id="53" value="&lt;font style=&quot;font-size: 11px;&quot;&gt;Выбрать тур вместе с клиентом&lt;/font&gt;" style="text;html=1;align=center;verticalAlign=middle;whiteSpace=wrap;rounded=0;" parent="1" vertex="1">
                    <mxGeometry x="220" y="715" width="60" height="30" as="geometry"/>
                </mxCell>
                <mxCell id="55" value="" style="endArrow=classic;html=1;exitX=1;exitY=0.5;exitDx=0;exitDy=0;entryX=0;entryY=0.5;entryDx=0;entryDy=0;" parent="1" source="43" target="52" edge="1">
                    <mxGeometry width="50" height="50" relative="1" as="geometry">
                        <mxPoint x="170" y="620" as="sourcePoint"/>
                        <mxPoint x="230" y="610" as="targetPoint"/>
                        <Array as="points">
                            <mxPoint x="150" y="630"/>
                            <mxPoint x="150" y="730"/>
                        </Array>
                    </mxGeometry>
                </mxCell>
                <mxCell id="57" value="Список туров" style="text;html=1;align=center;verticalAlign=middle;whiteSpace=wrap;rounded=0;" parent="1" vertex="1">
                    <mxGeometry x="150" y="640" width="60" height="30" as="geometry"/>
                </mxCell>
                <mxCell id="58" value="Клиент" style="text;html=1;align=center;verticalAlign=middle;whiteSpace=wrap;rounded=0;" parent="1" vertex="1">
                    <mxGeometry x="295" y="70" width="60" height="30" as="geometry"/>
                </mxCell>
                <mxCell id="60" value="" style="endArrow=classic;html=1;" parent="1" edge="1">
                    <mxGeometry width="50" height="50" relative="1" as="geometry">
                        <mxPoint x="324" y="70" as="sourcePoint"/>
                        <mxPoint x="324.31" y="20" as="targetPoint"/>
                    </mxGeometry>
                </mxCell>
                <mxCell id="61" value="Клиент" style="text;html=1;align=center;verticalAlign=middle;whiteSpace=wrap;rounded=0;" parent="1" vertex="1">
                    <mxGeometry x="-210" y="1290" width="60" height="30" as="geometry"/>
                </mxCell>
                <mxCell id="63" value="Составить договор" style="rounded=0;whiteSpace=wrap;html=1;" parent="1" vertex="1">
                    <mxGeometry x="390" y="810" width="120" height="60" as="geometry"/>
                </mxCell>
                <mxCell id="64" value="" style="endArrow=classic;html=1;exitX=1;exitY=0.5;exitDx=0;exitDy=0;entryX=0;entryY=0.5;entryDx=0;entryDy=0;" parent="1" source="52" target="63" edge="1">
                    <mxGeometry width="50" height="50" relative="1" as="geometry">
                        <mxPoint x="320" y="770" as="sourcePoint"/>
                        <mxPoint x="370" y="720" as="targetPoint"/>
                        <Array as="points">
                            <mxPoint x="340" y="730"/>
                            <mxPoint x="340" y="840"/>
                        </Array>
                    </mxGeometry>
                </mxCell>
                <mxCell id="66" value="" style="endArrow=classic;html=1;" parent="1" edge="1">
                    <mxGeometry width="50" height="50" relative="1" as="geometry">
                        <mxPoint x="455" y="650" as="sourcePoint"/>
                        <mxPoint x="455.5" y="810" as="targetPoint"/>
                    </mxGeometry>
                </mxCell>
                <mxCell id="67" value="&lt;span style=&quot;font-weight: normal;&quot;&gt;ГК РФ&lt;/span&gt;" style="text;html=1;align=center;verticalAlign=middle;whiteSpace=wrap;rounded=0;fontStyle=1" parent="1" vertex="1">
                    <mxGeometry x="395" y="620" width="115" height="30" as="geometry"/>
                </mxCell>
                <mxCell id="68" value="Выбранный тур" style="text;html=1;align=center;verticalAlign=middle;whiteSpace=wrap;rounded=0;" parent="1" vertex="1">
                    <mxGeometry x="350" y="760" width="60" height="30" as="geometry"/>
                </mxCell>
                <mxCell id="70" value="Подписать договор" style="rounded=0;whiteSpace=wrap;html=1;" parent="1" vertex="1">
                    <mxGeometry x="570" y="910" width="120" height="60" as="geometry"/>
                </mxCell>
                <mxCell id="71" value="" style="endArrow=classic;html=1;exitX=1;exitY=0.5;exitDx=0;exitDy=0;entryX=0;entryY=0.5;entryDx=0;entryDy=0;" parent="1" source="63" target="70" edge="1">
                    <mxGeometry width="50" height="50" relative="1" as="geometry">
                        <mxPoint x="540" y="920" as="sourcePoint"/>
                        <mxPoint x="590" y="870" as="targetPoint"/>
                        <Array as="points">
                            <mxPoint x="530" y="840"/>
                            <mxPoint x="530" y="940"/>
                        </Array>
                    </mxGeometry>
                </mxCell>
                <mxCell id="72" value="Составленный договор" style="text;html=1;align=center;verticalAlign=middle;whiteSpace=wrap;rounded=0;" parent="1" vertex="1">
                    <mxGeometry x="550" y="860" width="60" height="30" as="geometry"/>
                </mxCell>
                <mxCell id="75" value="" style="endArrow=classic;html=1;exitX=1;exitY=0.5;exitDx=0;exitDy=0;entryX=0;entryY=0.5;entryDx=0;entryDy=0;" parent="1" source="70" target="76" edge="1">
                    <mxGeometry width="50" height="50" relative="1" as="geometry">
                        <mxPoint x="750" y="980" as="sourcePoint"/>
                        <mxPoint x="810" y="940" as="targetPoint"/>
                        <Array as="points">
                            <mxPoint x="720" y="940"/>
                            <mxPoint x="720" y="1030"/>
                        </Array>
                    </mxGeometry>
                </mxCell>
                <mxCell id="76" value="" style="rounded=0;whiteSpace=wrap;html=1;" parent="1" vertex="1">
                    <mxGeometry x="790" y="1000" width="120" height="60" as="geometry"/>
                </mxCell>
                <mxCell id="77" value="Купить билеты и связаться с партенрами" style="text;html=1;align=center;verticalAlign=middle;whiteSpace=wrap;rounded=0;" parent="1" vertex="1">
                    <mxGeometry x="790" y="1015" width="120" height="30" as="geometry"/>
                </mxCell>
                <mxCell id="78" value="Оплаченная путевка" style="text;html=1;align=center;verticalAlign=middle;whiteSpace=wrap;rounded=0;" parent="1" vertex="1">
                    <mxGeometry x="730" y="960" width="60" height="30" as="geometry"/>
                </mxCell>
                <mxCell id="79" value="" style="endArrow=classic;html=1;exitX=1;exitY=0.5;exitDx=0;exitDy=0;entryX=0;entryY=0.5;entryDx=0;entryDy=0;" parent="1" source="77" target="80" edge="1">
                    <mxGeometry width="50" height="50" relative="1" as="geometry">
                        <mxPoint x="1060" y="1110" as="sourcePoint"/>
                        <mxPoint x="960" y="1110" as="targetPoint"/>
                        <Array as="points">
                            <mxPoint x="940" y="1030"/>
                            <mxPoint x="940" y="1100"/>
                        </Array>
                    </mxGeometry>
                </mxCell>
                <mxCell id="80" value="Сопроводить клиента в течении поездки" style="rounded=0;whiteSpace=wrap;html=1;" parent="1" vertex="1">
                    <mxGeometry x="1000" y="1070" width="120" height="60" as="geometry"/>
                </mxCell>
                <mxCell id="81" value="Турпакет" style="text;html=1;align=center;verticalAlign=middle;whiteSpace=wrap;rounded=0;" parent="1" vertex="1">
                    <mxGeometry x="940" y="1040" width="60" height="30" as="geometry"/>
                </mxCell>
                <mxCell id="82" value="" style="endArrow=classic;html=1;exitX=1;exitY=0.5;exitDx=0;exitDy=0;entryX=0;entryY=0.5;entryDx=0;entryDy=0;" parent="1" source="80" target="84" edge="1">
                    <mxGeometry width="50" height="50" relative="1" as="geometry">
                        <mxPoint x="1220" y="1150" as="sourcePoint"/>
                        <mxPoint x="1180" y="1170" as="targetPoint"/>
                        <Array as="points">
                            <mxPoint x="1150" y="1100"/>
                            <mxPoint x="1150" y="1190"/>
                        </Array>
                    </mxGeometry>
                </mxCell>
                <mxCell id="84" value="Собрать и обработать обратную связь" style="rounded=0;whiteSpace=wrap;html=1;" parent="1" vertex="1">
                    <mxGeometry x="1200" y="1160" width="120" height="60" as="geometry"/>
                </mxCell>
                <mxCell id="85" value="Отзыв клиента" style="text;html=1;align=center;verticalAlign=middle;whiteSpace=wrap;rounded=0;" parent="1" vertex="1">
                    <mxGeometry x="1155" y="1115" width="60" height="30" as="geometry"/>
                </mxCell>
                <mxCell id="87" value="" style="endArrow=classic;html=1;entryX=0.25;entryY=1;entryDx=0;entryDy=0;" parent="1" target="43" edge="1">
                    <mxGeometry width="50" height="50" relative="1" as="geometry">
                        <mxPoint x="-135" y="1270" as="sourcePoint"/>
                        <mxPoint x="155" y="1190" as="targetPoint"/>
                        <Array as="points">
                            <mxPoint x="25" y="1270"/>
                        </Array>
                    </mxGeometry>
                </mxCell>
                <mxCell id="88" value="" style="endArrow=classic;html=1;entryX=0.25;entryY=1;entryDx=0;entryDy=0;" parent="1" target="52" edge="1">
                    <mxGeometry width="50" height="50" relative="1" as="geometry">
                        <mxPoint x="-135" y="1270" as="sourcePoint"/>
                        <mxPoint x="225" y="1250" as="targetPoint"/>
                        <Array as="points">
                            <mxPoint x="220" y="1270"/>
                        </Array>
                    </mxGeometry>
                </mxCell>
                <mxCell id="89" value="" style="endArrow=classic;html=1;entryX=0.25;entryY=1;entryDx=0;entryDy=0;" parent="1" target="63" edge="1">
                    <mxGeometry width="50" height="50" relative="1" as="geometry">
                        <mxPoint x="-135" y="1270" as="sourcePoint"/>
                        <mxPoint x="415" y="1090" as="targetPoint"/>
                        <Array as="points">
                            <mxPoint x="420" y="1270"/>
                        </Array>
                    </mxGeometry>
                </mxCell>
                <mxCell id="90" value="" style="endArrow=classic;html=1;entryX=0.5;entryY=1;entryDx=0;entryDy=0;" parent="1" target="70" edge="1">
                    <mxGeometry width="50" height="50" relative="1" as="geometry">
                        <mxPoint x="-135" y="1270" as="sourcePoint"/>
                        <mxPoint x="685" y="1190" as="targetPoint"/>
                        <Array as="points">
                            <mxPoint x="630" y="1270"/>
                        </Array>
                    </mxGeometry>
                </mxCell>
                <mxCell id="91" value="" style="endArrow=classic;html=1;entryX=0.25;entryY=1;entryDx=0;entryDy=0;" parent="1" target="76" edge="1">
                    <mxGeometry width="50" height="50" relative="1" as="geometry">
                        <mxPoint x="-135" y="1270" as="sourcePoint"/>
                        <mxPoint x="775" y="1240" as="targetPoint"/>
                        <Array as="points">
                            <mxPoint x="820" y="1270"/>
                        </Array>
                    </mxGeometry>
                </mxCell>
                <mxCell id="92" value="" style="endArrow=classic;html=1;entryX=0.25;entryY=1;entryDx=0;entryDy=0;" parent="1" target="80" edge="1">
                    <mxGeometry width="50" height="50" relative="1" as="geometry">
                        <mxPoint x="-135" y="1270" as="sourcePoint"/>
                        <mxPoint x="1005" y="1270" as="targetPoint"/>
                        <Array as="points">
                            <mxPoint x="1030" y="1270"/>
                        </Array>
                    </mxGeometry>
                </mxCell>
                <mxCell id="93" value="" style="endArrow=classic;html=1;entryX=0.25;entryY=1;entryDx=0;entryDy=0;" parent="1" target="84" edge="1">
                    <mxGeometry width="50" height="50" relative="1" as="geometry">
                        <mxPoint x="-135" y="1270" as="sourcePoint"/>
                        <mxPoint x="1245" y="1280" as="targetPoint"/>
                        <Array as="points">
                            <mxPoint x="1230" y="1270"/>
                        </Array>
                    </mxGeometry>
                </mxCell>
                <mxCell id="94" value="Анкета обратной связи" style="text;html=1;align=center;verticalAlign=middle;whiteSpace=wrap;rounded=0;" parent="1" vertex="1">
                    <mxGeometry x="1260" y="1085" width="60" height="30" as="geometry"/>
                </mxCell>
                <mxCell id="95" value="" style="endArrow=classic;html=1;" parent="1" edge="1">
                    <mxGeometry width="50" height="50" relative="1" as="geometry">
                        <mxPoint x="1289.58" y="1130" as="sourcePoint"/>
                        <mxPoint x="1289.58" y="1160" as="targetPoint"/>
                    </mxGeometry>
                </mxCell>
                <mxCell id="97" value="" style="endArrow=classic;html=1;entryX=0.286;entryY=0.991;entryDx=0;entryDy=0;entryPerimeter=0;" parent="1" edge="1">
                    <mxGeometry width="50" height="50" relative="1" as="geometry">
                        <mxPoint x="-170.5" y="1290" as="sourcePoint"/>
                        <mxPoint x="-170.50000000000006" y="540" as="targetPoint"/>
                    </mxGeometry>
                </mxCell>
                <mxCell id="99" value="" style="endArrow=classic;html=1;" parent="1" edge="1">
                    <mxGeometry width="50" height="50" relative="1" as="geometry">
                        <mxPoint x="-170" y="1240" as="sourcePoint"/>
                        <mxPoint x="1290" y="1220" as="targetPoint"/>
                        <Array as="points">
                            <mxPoint x="1290" y="1240"/>
                        </Array>
                    </mxGeometry>
                </mxCell>
                <mxCell id="100" value="" style="endArrow=classic;html=1;entryX=0;entryY=1;entryDx=0;entryDy=0;" parent="1" edge="1">
                    <mxGeometry width="50" height="50" relative="1" as="geometry">
                        <mxPoint x="-170" y="1240" as="sourcePoint"/>
                        <mxPoint x="270" y="760" as="targetPoint"/>
                        <Array as="points">
                            <mxPoint x="275" y="1240"/>
                        </Array>
                    </mxGeometry>
                </mxCell>
                <mxCell id="101" value="" style="endArrow=classic;html=1;entryX=0.75;entryY=1;entryDx=0;entryDy=0;" parent="1" target="70" edge="1">
                    <mxGeometry width="50" height="50" relative="1" as="geometry">
                        <mxPoint x="-170" y="1240" as="sourcePoint"/>
                        <mxPoint x="-155" y="1160" as="targetPoint"/>
                        <Array as="points">
                            <mxPoint x="660" y="1240"/>
                        </Array>
                    </mxGeometry>
                </mxCell>
                <mxCell id="103" value="" style="endArrow=classic;html=1;entryX=0.385;entryY=0.996;entryDx=0;entryDy=0;entryPerimeter=0;" parent="1" edge="1">
                    <mxGeometry width="50" height="50" relative="1" as="geometry">
                        <mxPoint x="-225" y="1320" as="sourcePoint"/>
                        <mxPoint x="-224.99999999999994" y="539.7600000000002" as="targetPoint"/>
                    </mxGeometry>
                </mxCell>
                <mxCell id="104" value="" style="endArrow=classic;html=1;entryX=0.169;entryY=0.963;entryDx=0;entryDy=0;entryPerimeter=0;" parent="1" target="70" edge="1">
                    <mxGeometry width="50" height="50" relative="1" as="geometry">
                        <mxPoint x="-225" y="1170" as="sourcePoint"/>
                        <mxPoint x="590" y="980" as="targetPoint"/>
                        <Array as="points">
                            <mxPoint x="590" y="1170"/>
                        </Array>
                    </mxGeometry>
                </mxCell>
                <mxCell id="108" value="" style="endArrow=none;html=1;" parent="1" edge="1">
                    <mxGeometry width="50" height="50" relative="1" as="geometry">
                        <mxPoint x="-480" y="360" as="sourcePoint"/>
                        <mxPoint x="1580" y="360" as="targetPoint"/>
                    </mxGeometry>
                </mxCell>
                <mxCell id="109" value="" style="endArrow=none;html=1;" parent="1" edge="1">
                    <mxGeometry width="50" height="50" relative="1" as="geometry">
                        <mxPoint x="-480" y="1400" as="sourcePoint"/>
                        <mxPoint x="-480" y="360" as="targetPoint"/>
                    </mxGeometry>
                </mxCell>
                <mxCell id="110" value="" style="endArrow=none;html=1;" parent="1" edge="1">
                    <mxGeometry width="50" height="50" relative="1" as="geometry">
                        <mxPoint x="1580" y="1400" as="sourcePoint"/>
                        <mxPoint x="1580" y="360" as="targetPoint"/>
                    </mxGeometry>
                </mxCell>
                <mxCell id="111" value="" style="endArrow=none;html=1;" parent="1" edge="1">
                    <mxGeometry width="50" height="50" relative="1" as="geometry">
                        <mxPoint x="-480" y="1360" as="sourcePoint"/>
                        <mxPoint x="1580" y="1360" as="targetPoint"/>
                    </mxGeometry>
                </mxCell>
                <mxCell id="112" value="" style="endArrow=none;html=1;" parent="1" edge="1">
                    <mxGeometry width="50" height="50" relative="1" as="geometry">
                        <mxPoint x="-480" y="1400" as="sourcePoint"/>
                        <mxPoint x="1580" y="1400" as="targetPoint"/>
                    </mxGeometry>
                </mxCell>
                <mxCell id="113" value="" style="endArrow=none;html=1;" parent="1" edge="1">
                    <mxGeometry width="50" height="50" relative="1" as="geometry">
                        <mxPoint x="-320" y="1400" as="sourcePoint"/>
                        <mxPoint x="-320" y="1360" as="targetPoint"/>
                    </mxGeometry>
                </mxCell>
                <mxCell id="114" value="&lt;font style=&quot;font-size: 19px;&quot;&gt;А0&lt;/font&gt;" style="text;html=1;align=center;verticalAlign=middle;whiteSpace=wrap;rounded=0;" parent="1" vertex="1">
                    <mxGeometry x="-440" y="1360" width="95" height="40" as="geometry"/>
                </mxCell>
                <mxCell id="116" value="" style="endArrow=classic;html=1;exitX=1;exitY=0.5;exitDx=0;exitDy=0;" parent="1" source="84" edge="1">
                    <mxGeometry width="50" height="50" relative="1" as="geometry">
                        <mxPoint x="1380" y="1220" as="sourcePoint"/>
                        <mxPoint x="1410" y="1190" as="targetPoint"/>
                    </mxGeometry>
                </mxCell>
                <mxCell id="117" value="Обработанная анкета обратной связи&amp;nbsp;" style="text;html=1;align=center;verticalAlign=middle;whiteSpace=wrap;rounded=0;" parent="1" vertex="1">
                    <mxGeometry x="1420" y="1175" width="60" height="30" as="geometry"/>
                </mxCell>
                <mxCell id="118" value="А01" style="text;html=1;align=center;verticalAlign=middle;whiteSpace=wrap;rounded=0;" parent="1" vertex="1">
                    <mxGeometry x="-140" y="520" width="30" height="20" as="geometry"/>
                </mxCell>
                <mxCell id="119" value="А02" style="text;html=1;align=center;verticalAlign=middle;whiteSpace=wrap;rounded=0;" parent="1" vertex="1">
                    <mxGeometry x="85" y="640" width="30" height="20" as="geometry"/>
                </mxCell>
                <mxCell id="120" value="А03" style="text;html=1;align=center;verticalAlign=middle;whiteSpace=wrap;rounded=0;" parent="1" vertex="1">
                    <mxGeometry x="280" y="740" width="30" height="20" as="geometry"/>
                </mxCell>
                <mxCell id="121" value="А04" style="text;html=1;align=center;verticalAlign=middle;whiteSpace=wrap;rounded=0;" parent="1" vertex="1">
                    <mxGeometry x="480" y="850" width="30" height="20" as="geometry"/>
                </mxCell>
                <mxCell id="122" value="А05" style="text;html=1;align=center;verticalAlign=middle;whiteSpace=wrap;rounded=0;" parent="1" vertex="1">
                    <mxGeometry x="660" y="950" width="30" height="20" as="geometry"/>
                </mxCell>
                <mxCell id="123" value="А06" style="text;html=1;align=center;verticalAlign=middle;whiteSpace=wrap;rounded=0;" parent="1" vertex="1">
                    <mxGeometry x="880" y="1040" width="30" height="20" as="geometry"/>
                </mxCell>
                <mxCell id="124" value="А07" style="text;html=1;align=center;verticalAlign=middle;whiteSpace=wrap;rounded=0;" parent="1" vertex="1">
                    <mxGeometry x="1090" y="1110" width="30" height="20" as="geometry"/>
                </mxCell>
                <mxCell id="125" value="А08" style="text;html=1;align=center;verticalAlign=middle;whiteSpace=wrap;rounded=0;" parent="1" vertex="1">
                    <mxGeometry x="1300" y="1205" width="20" height="15" as="geometry"/>
                </mxCell>
                <mxCell id="126" value="Анкета обратной связи" style="text;html=1;align=center;verticalAlign=middle;whiteSpace=wrap;rounded=0;" vertex="1" parent="1">
                    <mxGeometry x="310" y="-160" width="95" height="30" as="geometry"/>
                </mxCell>
                <mxCell id="127" value="" style="endArrow=classic;html=1;exitX=0.5;exitY=1;exitDx=0;exitDy=0;entryX=0.31;entryY=-0.004;entryDx=0;entryDy=0;entryPerimeter=0;" edge="1" parent="1" source="126" target="10">
                    <mxGeometry width="50" height="50" relative="1" as="geometry">
                        <mxPoint x="344.7" y="-120" as="sourcePoint"/>
                        <mxPoint x="350" y="-102" as="targetPoint"/>
                    </mxGeometry>
                </mxCell>
            </root>
        </mxGraphModel>
    </diagram>
</mxfile>